<svg xmlns="http://www.w3.org/2000/svg" width="800" height="800" viewBox="0 0 800 800" role="img" aria-labelledby="title desc">
<title id="title">متر لیزری رونیکس مدل RH-9353 | Ronix RH-9353</title><desc id="desc">تصویر گرافیکی اختصاصی متر لیزری رونیکس مدل RH-9353 | Ronix RH-9353 با تم سفید فروشگاه نقشیران</desc>
<defs>
 <linearGradient id="stage" x2="0" y2="1"><stop stop-color="#fff"/><stop offset=".72" stop-color="#f8fafc"/><stop offset="1" stop-color="#edf2f6"/></linearGradient>
 <linearGradient id="metal" x1="0" x2="1" y1="0" y2="1"><stop stop-color="#e7ebef"/><stop offset=".28" stop-color="#aeb7c0"/><stop offset=".55" stop-color="#f8fafb"/><stop offset=".8" stop-color="#87929c"/><stop offset="1" stop-color="#d7dde2"/></linearGradient>
 <linearGradient id="darkgrad" x1="0" x2="1" y1="0" y2="1"><stop stop-color="#5a626a"/><stop offset=".45" stop-color="#333a42"/><stop offset="1" stop-color="#1e242a"/></linearGradient>
 <linearGradient id="wood" x1="0" x2="1"><stop stop-color="#80572f"/><stop offset=".2" stop-color="#d1a36a"/><stop offset=".42" stop-color="#95643a"/><stop offset=".62" stop-color="#d4a66c"/><stop offset="1" stop-color="#76502f"/></linearGradient>
 <radialGradient id="lens" cx=".35" cy=".25"><stop stop-color="#a8d1dc"/><stop offset=".24" stop-color="#476f82"/><stop offset=".6" stop-color="#182e3a"/><stop offset="1" stop-color="#090f14"/></radialGradient>
 <linearGradient id="screen" x1="0" x2="1" y1="0" y2="1"><stop stop-color="#eaf3f4"/><stop offset="1" stop-color="#a8c2cb"/></linearGradient>
 <filter id="shadow" x="-35%" y="-25%" width="170%" height="170%"><feDropShadow dx="0" dy="22" stdDeviation="18" flood-color="#233648" flood-opacity=".28"/></filter>
 <filter id="beam" x="-80%" y="-80%" width="260%" height="260%"><feGaussianBlur stdDeviation="14"/></filter>
 <pattern id="grid" width="42" height="42" patternUnits="userSpaceOnUse"><path d="M42 0H0V42" fill="none" stroke="#b8c7d5" stroke-opacity=".13" stroke-width="1"/></pattern>
</defs>
<rect width="800" height="800" fill="url(#stage)"/><rect width="800" height="800" fill="url(#grid)"/>
<circle cx="405" cy="395" r="290" fill="#fff" opacity=".52"/><circle cx="400" cy="406" r="283" fill="none" stroke="#e3e9ef" stroke-width="2" stroke-dasharray="3 13"/>
<path d="M96 618c140-37 460-38 608 0" fill="none" stroke="#ed572f" stroke-opacity=".12" stroke-width="3"/>
<ellipse cx="400" cy="667" rx="230" ry="30" fill="#697b8e" opacity=".09"/>
<g filter="url(#shadow)">
 <path d="M323 173q0-35 39-35h85q39 0 39 35v438q0 39-39 39h-85q-39 0-39-39z" fill="#282b30" stroke="#151b20" stroke-width="10"/>
 <path d="M331 186q0-32 31-32h25v491h-26q-30 0-30-33z" fill="#ed572f"/><path d="M478 186q0-32-31-32h-25v491h26q30 0 30-33z" fill="#ed572f"/>
 <rect x="354" y="200" width="100" height="154" rx="12" fill="#cde5ec" stroke="#8aa2ad" stroke-width="8"/><path d="M369 247h64M369 281h50M369 316h37" stroke="#42616b" stroke-width="6" stroke-linecap="round"/>
 <circle cx="404" cy="405" r="32" fill="#ff8a42" stroke="#242a30" stroke-width="8"/><circle cx="404" cy="405" r="12" fill="#f8fbfc"/>
 <g fill="#303840" stroke="#909aa3" stroke-width="5"><rect x="354" y="460" width="42" height="42" rx="12"/><rect x="412" y="460" width="42" height="42" rx="12"/><rect x="354" y="515" width="42" height="42" rx="12"/><rect x="412" y="515" width="42" height="42" rx="12"/></g>
 <path d="M345 591h133" stroke="#22282e" stroke-width="8"/>
 </g>
<g font-family="Arial, sans-serif"><text x="48" y="63" fill="#82909e" font-size="17" font-weight="700" letter-spacing="3">NAGHSHIRAN  /  SURVEY EQUIPMENT</text><path d="M48 82h90" stroke="#ed572f" stroke-width="5" stroke-linecap="round"/><path d="M148 82h38" stroke="#2ab8c8" stroke-width="5" stroke-linecap="round"/><text x="752" y="752" text-anchor="end" fill="#53616e" font-size="21" font-weight="700" letter-spacing="1">RONIX RH-9353</text></g>
</svg>