<svg xmlns="http://www.w3.org/2000/svg" width="800" height="800" viewBox="0 0 800 800" role="img" aria-labelledby="title desc">
<title id="title">باتری لایکا مدل GEB222 با سلول اصلی ۷٫۴ ولت</title><desc id="desc">تصویر گرافیکی اختصاصی باتری لایکا مدل GEB222 با سلول اصلی ۷٫۴ ولت با تم سفید فروشگاه نقشیران</desc>
<defs>
 <linearGradient id="stage" x2="0" y2="1"><stop stop-color="#fff"/><stop offset=".72" stop-color="#f8fafc"/><stop offset="1" stop-color="#edf2f6"/></linearGradient>
 <linearGradient id="metal" x1="0" x2="1" y1="0" y2="1"><stop stop-color="#e7ebef"/><stop offset=".28" stop-color="#aeb7c0"/><stop offset=".55" stop-color="#f8fafb"/><stop offset=".8" stop-color="#87929c"/><stop offset="1" stop-color="#d7dde2"/></linearGradient>
 <linearGradient id="darkgrad" x1="0" x2="1" y1="0" y2="1"><stop stop-color="#5a626a"/><stop offset=".45" stop-color="#333a42"/><stop offset="1" stop-color="#1e242a"/></linearGradient>
 <linearGradient id="wood" x1="0" x2="1"><stop stop-color="#80572f"/><stop offset=".2" stop-color="#d1a36a"/><stop offset=".42" stop-color="#95643a"/><stop offset=".62" stop-color="#d4a66c"/><stop offset="1" stop-color="#76502f"/></linearGradient>
 <radialGradient id="lens" cx=".35" cy=".25"><stop stop-color="#a8d1dc"/><stop offset=".24" stop-color="#476f82"/><stop offset=".6" stop-color="#182e3a"/><stop offset="1" stop-color="#090f14"/></radialGradient>
 <linearGradient id="screen" x1="0" x2="1" y1="0" y2="1"><stop stop-color="#eaf3f4"/><stop offset="1" stop-color="#a8c2cb"/></linearGradient>
 <filter id="shadow" x="-35%" y="-25%" width="170%" height="170%"><feDropShadow dx="0" dy="22" stdDeviation="18" flood-color="#233648" flood-opacity=".28"/></filter>
 <filter id="beam" x="-80%" y="-80%" width="260%" height="260%"><feGaussianBlur stdDeviation="14"/></filter>
 <pattern id="grid" width="42" height="42" patternUnits="userSpaceOnUse"><path d="M42 0H0V42" fill="none" stroke="#b8c7d5" stroke-opacity=".13" stroke-width="1"/></pattern>
</defs>
<rect width="800" height="800" fill="url(#stage)"/><rect width="800" height="800" fill="url(#grid)"/>
<circle cx="405" cy="395" r="290" fill="#fff" opacity=".52"/><circle cx="400" cy="406" r="283" fill="none" stroke="#e3e9ef" stroke-width="2" stroke-dasharray="3 13"/>
<path d="M96 618c140-37 460-38 608 0" fill="none" stroke="#ed762c" stroke-opacity=".12" stroke-width="3"/>
<ellipse cx="400" cy="667" rx="230" ry="30" fill="#697b8e" opacity=".09"/>
<g filter="url(#shadow)">
 <path d="M322 251h156l24 50v282q0 35-35 35H333q-35 0-35-35V301z" fill="url(#darkgrad)" stroke="#252c33" stroke-width="9"/>
 <path d="M321 319h158v205H321z" fill="#ed762c"/><path d="M340 332h120v179H340z" fill="#f5f7fa" stroke="#cbd3dc" stroke-width="5"/>
 <path d="M358 287h84v-30h-84z" fill="#252b31"/><rect x="369" y="228" width="22" height="48" rx="5" fill="#b1bbc5"/><rect x="409" y="228" width="22" height="48" rx="5" fill="#b1bbc5"/>
 <rect x="350" y="355" width="100" height="12" rx="6" fill="#ed762c"/><rect x="350" y="382" width="78" height="8" rx="4" fill="#8c99a6"/><rect x="350" y="403" width="90" height="8" rx="4" fill="#b1bbc4"/>
 <circle cx="400" cy="463" r="25" fill="#eef4f7" stroke="#9eabb7" stroke-width="6"/><path d="m390 463 8 8 16-19" fill="none" stroke="#ed762c" stroke-width="7" stroke-linecap="round"/>
 <path d="M300 322h-14v185h14m200-185h14v185h-14" fill="none" stroke="#89939d" stroke-width="7"/>
 </g>
<g font-family="Arial, sans-serif"><text x="48" y="63" fill="#82909e" font-size="17" font-weight="700" letter-spacing="3">NAGHSHIRAN  /  SURVEY EQUIPMENT</text><path d="M48 82h90" stroke="#ed762c" stroke-width="5" stroke-linecap="round"/><path d="M148 82h38" stroke="#2ab8c8" stroke-width="5" stroke-linecap="round"/><text x="752" y="752" text-anchor="end" fill="#53616e" font-size="21" font-weight="700" letter-spacing="1">LEICA GEB222</text><text x="48" y="752" fill="#8b98a4" font-size="14" letter-spacing="2">NR-96024</text></g>
</svg>